# xmcd CD database file
#
# Track frame offsets:
#	150
#	25325
#	53362
#	84005
#	107165
#	124987
#	152842
#	186575
#	209350
#	232450
#	261712
#	287025
#	308162
#
# Disc length: 4404 seconds
#
# Revision: 0
# Processed by: cddbd v1.5PL3 Copyright (c) Steve Scherf et al.
# Submitted via: CDex 1.51
#
DISCID=c011320d
DTITLE=CHAGE&ASKA - Singles - The European Collection
DYEAR=1994
DGENRE=JPop
TTITLE0=Pride
TTITLE1=You Are Free
TTITLE2=Raspberry
TTITLE3=Sons And Daughters
TTITLE4=Primrose Hill
TTITLE5=Dream
TTITLE6=Red Hill
TTITLE7=No No Darlin'
TTITLE8=Love's Cradle
TTITLE9=If Only I Could Tell You
TTITLE10=Love Song
TTITLE11=Say Yes
TTITLE12=Yah Yah Yah
EXTD=YEAR: 1994
EXTT0=
EXTT1=
EXTT2=
EXTT3=
EXTT4=
EXTT5=
EXTT6=
EXTT7=
EXTT8=
EXTT9=
EXTT10=
EXTT11=
EXTT12=
PLAYORDER=
